<svg xmlns="http://www.w3.org/2000/svg" xmlns:xlink="http://www.w3.org/1999/xlink" width="500" zoomAndPan="magnify" viewBox="0 0 375 374.999991" height="500" preserveAspectRatio="xMidYMid meet" version="1.0"><defs><g/><clipPath id="15457be205"><path d="M 25.351562 71.066406 L 234.441406 71.066406 L 234.441406 280.15625 L 25.351562 280.15625 Z M 25.351562 71.066406 " clip-rule="nonzero"/></clipPath><clipPath id="caffd721f3"><path d="M 129.894531 71.066406 C 72.15625 71.066406 25.351562 117.871094 25.351562 175.613281 C 25.351562 233.351562 72.15625 280.15625 129.894531 280.15625 C 187.632812 280.15625 234.441406 233.351562 234.441406 175.613281 C 234.441406 117.871094 187.632812 71.066406 129.894531 71.066406 Z M 129.894531 71.066406 " clip-rule="nonzero"/></clipPath><clipPath id="934bdb15f9"><path d="M 230.015625 26.660156 L 318.515625 26.660156 L 318.515625 115.160156 L 230.015625 115.160156 Z M 230.015625 26.660156 " clip-rule="nonzero"/></clipPath></defs><g clip-path="url(#15457be205)"><g clip-path="url(#caffd721f3)"><path fill="#5271ff" d="M 25.351562 71.066406 L 234.441406 71.066406 L 234.441406 280.15625 L 25.351562 280.15625 Z M 25.351562 71.066406 " fill-opacity="1" fill-rule="nonzero"/></g></g><g clip-path="url(#934bdb15f9)"><path fill="#ffffff" d="M 318.515625 70.910156 C 318.515625 72.359375 318.445312 73.804688 318.304688 75.25 C 318.164062 76.691406 317.949219 78.121094 317.667969 79.542969 C 317.382812 80.964844 317.03125 82.367188 316.613281 83.757812 C 316.191406 85.144531 315.703125 86.503906 315.148438 87.84375 C 314.59375 89.183594 313.976562 90.492188 313.292969 91.769531 C 312.609375 93.046875 311.863281 94.289062 311.058594 95.496094 C 310.253906 96.699219 309.390625 97.863281 308.472656 98.984375 C 307.554688 100.101562 306.582031 101.175781 305.558594 102.199219 C 304.53125 103.226562 303.460938 104.195312 302.339844 105.117188 C 301.21875 106.035156 300.054688 106.898438 298.851562 107.703125 C 297.644531 108.507812 296.40625 109.253906 295.125 109.9375 C 293.847656 110.617188 292.539062 111.238281 291.203125 111.792969 C 289.863281 112.347656 288.5 112.835938 287.113281 113.253906 C 285.726562 113.675781 284.320312 114.027344 282.898438 114.3125 C 281.480469 114.59375 280.046875 114.804688 278.605469 114.949219 C 277.164062 115.089844 275.714844 115.160156 274.265625 115.160156 C 272.816406 115.160156 271.371094 115.089844 269.929688 114.949219 C 268.488281 114.804688 267.054688 114.59375 265.632812 114.3125 C 264.214844 114.027344 262.808594 113.675781 261.421875 113.253906 C 260.035156 112.835938 258.671875 112.347656 257.332031 111.792969 C 255.996094 111.238281 254.6875 110.617188 253.40625 109.9375 C 252.128906 109.253906 250.886719 108.507812 249.683594 107.703125 C 248.476562 106.898438 247.316406 106.035156 246.195312 105.117188 C 245.074219 104.195312 244.003906 103.226562 242.976562 102.199219 C 241.953125 101.175781 240.980469 100.101562 240.0625 98.984375 C 239.140625 97.863281 238.28125 96.699219 237.476562 95.496094 C 236.667969 94.289062 235.925781 93.046875 235.242188 91.769531 C 234.558594 90.492188 233.941406 89.183594 233.386719 87.84375 C 232.832031 86.503906 232.34375 85.144531 231.921875 83.757812 C 231.503906 82.367188 231.152344 80.964844 230.867188 79.542969 C 230.585938 78.121094 230.371094 76.691406 230.230469 75.25 C 230.089844 73.804688 230.015625 72.359375 230.015625 70.910156 C 230.015625 69.460938 230.089844 68.015625 230.230469 66.574219 C 230.371094 65.132812 230.585938 63.699219 230.867188 62.277344 C 231.152344 60.855469 231.503906 59.453125 231.921875 58.066406 C 232.34375 56.679688 232.832031 55.316406 233.386719 53.976562 C 233.941406 52.636719 234.558594 51.328125 235.242188 50.050781 C 235.925781 48.773438 236.667969 47.53125 237.476562 46.328125 C 238.28125 45.121094 239.140625 43.960938 240.0625 42.839844 C 240.980469 41.71875 241.953125 40.644531 242.976562 39.621094 C 244.003906 38.597656 245.074219 37.625 246.195312 36.707031 C 247.316406 35.785156 248.476562 34.921875 249.683594 34.117188 C 250.886719 33.3125 252.128906 32.570312 253.40625 31.886719 C 254.6875 31.203125 255.996094 30.582031 257.332031 30.027344 C 258.671875 29.472656 260.035156 28.988281 261.421875 28.566406 C 262.808594 28.144531 264.214844 27.792969 265.632812 27.511719 C 267.054688 27.226562 268.488281 27.015625 269.929688 26.875 C 271.371094 26.730469 272.816406 26.660156 274.265625 26.660156 C 275.714844 26.660156 277.164062 26.730469 278.605469 26.875 C 280.046875 27.015625 281.480469 27.226562 282.898438 27.511719 C 284.320312 27.792969 285.726562 28.144531 287.113281 28.566406 C 288.5 28.988281 289.863281 29.472656 291.203125 30.027344 C 292.539062 30.582031 293.847656 31.203125 295.125 31.886719 C 296.40625 32.570312 297.644531 33.3125 298.851562 34.117188 C 300.054688 34.921875 301.21875 35.785156 302.339844 36.707031 C 303.460938 37.625 304.53125 38.597656 305.558594 39.621094 C 306.582031 40.644531 307.554688 41.71875 308.472656 42.839844 C 309.390625 43.960938 310.253906 45.121094 311.058594 46.328125 C 311.863281 47.53125 312.609375 48.773438 313.292969 50.050781 C 313.976562 51.328125 314.59375 52.636719 315.148438 53.976562 C 315.703125 55.316406 316.191406 56.679688 316.613281 58.066406 C 317.03125 59.453125 317.382812 60.855469 317.667969 62.277344 C 317.949219 63.699219 318.164062 65.132812 318.304688 66.574219 C 318.445312 68.015625 318.515625 69.460938 318.515625 70.910156 Z M 318.515625 70.910156 " fill-opacity="1" fill-rule="nonzero"/></g><g fill="#ffffff" fill-opacity="1"><g transform="translate(32.629529, 205.611886)"><g><path d="M 30.046875 0.8125 C 22.242188 0.8125 16.453125 -1.039062 12.671875 -4.75 C 8.898438 -8.457031 7.015625 -13.957031 7.015625 -21.25 L 7.015625 -56.6875 L 17.984375 -56.6875 L 17.984375 -21.328125 C 17.984375 -17.191406 18.976562 -14.085938 20.96875 -12.015625 C 22.96875 -9.953125 25.992188 -8.921875 30.046875 -8.921875 C 38.085938 -8.921875 42.109375 -13.054688 42.109375 -21.328125 L 42.109375 -56.6875 L 53.078125 -56.6875 L 53.078125 -21.25 C 53.078125 -13.957031 51.191406 -8.457031 47.421875 -4.75 C 43.648438 -1.039062 37.859375 0.8125 30.046875 0.8125 Z M 30.046875 0.8125 "/></g></g></g><g fill="#ffffff" fill-opacity="1"><g transform="translate(92.718159, 205.611886)"><g><path d="M 6.171875 0 L 6.171875 -42.765625 L 16.59375 -42.765625 L 16.59375 -36.40625 L 17.40625 -36.25 C 18.4375 -38.625 19.789062 -40.367188 21.46875 -41.484375 C 23.15625 -42.597656 25.203125 -43.15625 27.609375 -43.15625 C 30.035156 -43.15625 31.882812 -42.738281 33.15625 -41.90625 L 31.328125 -32.640625 L 30.515625 -32.484375 C 29.816406 -32.773438 29.144531 -32.984375 28.5 -33.109375 C 27.851562 -33.242188 27.0625 -33.3125 26.125 -33.3125 C 23.132812 -33.3125 20.847656 -32.253906 19.265625 -30.140625 C 17.691406 -28.035156 16.90625 -24.65625 16.90625 -20 L 16.90625 0 Z M 6.171875 0 "/></g></g></g><g fill="#ffffff" fill-opacity="1"><g transform="translate(126.251497, 205.611886)"><g><path d="M 21.125 0.8125 C 17.738281 0.8125 14.75 -0.00390625 12.15625 -1.640625 C 9.5625 -3.285156 7.523438 -5.769531 6.046875 -9.09375 C 4.578125 -12.414062 3.84375 -16.503906 3.84375 -21.359375 C 3.84375 -26.242188 4.597656 -30.347656 6.109375 -33.671875 C 7.617188 -36.992188 9.710938 -39.472656 12.390625 -41.109375 C 15.066406 -42.753906 18.160156 -43.578125 21.671875 -43.578125 C 24.335938 -43.578125 26.644531 -43.117188 28.59375 -42.203125 C 30.539062 -41.285156 32.1875 -39.859375 33.53125 -37.921875 L 34.359375 -38.109375 L 34.359375 -59.9375 L 45.09375 -59.9375 L 45.09375 0 L 34.359375 0 L 34.359375 -5.546875 L 33.53125 -5.703125 C 32.34375 -3.679688 30.710938 -2.085938 28.640625 -0.921875 C 26.578125 0.234375 24.070312 0.8125 21.125 0.8125 Z M 24.625 -8.296875 C 27.644531 -8.296875 30.035156 -9.375 31.796875 -11.53125 C 33.554688 -13.6875 34.4375 -16.960938 34.4375 -21.359375 C 34.4375 -25.753906 33.554688 -29.035156 31.796875 -31.203125 C 30.035156 -33.378906 27.644531 -34.46875 24.625 -34.46875 C 21.46875 -34.46875 19.054688 -33.414062 17.390625 -31.3125 C 15.722656 -29.207031 14.890625 -25.890625 14.890625 -21.359375 C 14.890625 -16.867188 15.722656 -13.566406 17.390625 -11.453125 C 19.054688 -9.347656 21.46875 -8.296875 24.625 -8.296875 Z M 24.625 -8.296875 "/></g></g></g><g fill="#ffffff" fill-opacity="1"><g transform="translate(177.501285, 205.611886)"><g><path d="M 19.578125 0.8125 C 14.773438 0.8125 11.226562 -0.5 8.9375 -3.125 C 6.644531 -5.75 5.5 -9.515625 5.5 -14.421875 L 5.5 -42.765625 L 16.25 -42.765625 L 16.25 -15.78125 C 16.25 -13.164062 16.8125 -11.257812 17.9375 -10.0625 C 19.0625 -8.863281 20.796875 -8.265625 23.140625 -8.265625 C 26.117188 -8.265625 28.429688 -9.238281 30.078125 -11.1875 C 31.734375 -13.132812 32.5625 -16.203125 32.5625 -20.390625 L 32.5625 -42.765625 L 43.3125 -42.765625 L 43.3125 0 L 33 0 L 33 -6.28125 L 32.1875 -6.46875 C 30.8125 -4.019531 29.132812 -2.191406 27.15625 -0.984375 C 25.175781 0.210938 22.648438 0.8125 19.578125 0.8125 Z M 19.578125 0.8125 "/></g></g></g><g fill="#ffffff" fill-opacity="1"><g transform="translate(226.97327, 205.611886)"><g/></g></g><g fill="#5271ff" fill-opacity="1"><g transform="translate(238.143665, 226.611885)"><g><path d="M 21.015625 0 L 1.640625 0 L 29.984375 -49.25 L 3.015625 -95.734375 L 23.109375 -95.734375 L 42.953125 -61.421875 L 44.59375 -61.421875 L 64.765625 -95.734375 L 83.890625 -95.734375 L 56.90625 -49.25 L 85.265625 0 L 65.21875 0 L 43.9375 -36.9375 L 42.296875 -36.9375 Z M 21.015625 0 "/></g></g></g><g fill="#5271ff" fill-opacity="1"><g transform="translate(325.039724, 226.611885)"><g><path d="M 18.46875 0.59375 C 16.15625 0.59375 14.113281 0.125 12.34375 -0.8125 C 10.570312 -1.75 9.21875 -3.046875 8.28125 -4.703125 C 7.34375 -6.367188 6.875 -8.25 6.875 -10.34375 C 6.875 -12.4375 7.34375 -14.3125 8.28125 -15.96875 C 9.21875 -17.632812 10.570312 -18.945312 12.34375 -19.90625 C 14.113281 -20.863281 16.15625 -21.34375 18.46875 -21.34375 C 20.820312 -21.34375 22.882812 -20.875 24.65625 -19.9375 C 26.425781 -19 27.78125 -17.703125 28.71875 -16.046875 C 29.65625 -14.390625 30.125 -12.507812 30.125 -10.40625 C 30.125 -7.21875 29.0625 -4.585938 26.9375 -2.515625 C 24.820312 -0.441406 22 0.59375 18.46875 0.59375 Z M 18.46875 0.59375 "/></g></g></g></svg>